<?xml version="1.0" standalone="no"?>
<!DOCTYPE svg PUBLIC "-//W3C//DTD SVG 20010904//EN"
 "http://www.w3.org/TR/2001/REC-SVG-20010904/DTD/svg10.dtd">
<svg version="1.0" xmlns="http://www.w3.org/2000/svg"
 width="1983.000000pt" height="793.000000pt" viewBox="0 0 1983.000000 793.000000"
 preserveAspectRatio="xMidYMid meet">

<g transform="translate(0.000000,793.000000) scale(0.100000,-0.100000)"
fill="#ffffff" stroke="none">
<path d="M6835 5776 c-392 -118 -761 -360 -1171 -770 -187 -187 -323 -344
-542 -625 -23 -29 -42 -57 -42 -60 0 -10 170 -201 179 -201 4 0 34 37 66 83
311 437 534 707 814 987 281 280 483 437 724 561 137 71 134 74 -28 25z"/>
<path d="M2750 5766 c285 -98 531 -255 760 -485 124 -124 220 -238 400 -476
302 -399 446 -552 743 -792 l120 -98 18 25 c225 310 277 386 270 395 -202 265
-329 411 -502 581 -457 445 -1082 765 -1693 864 -66 11 -141 20 -166 20 -44
-1 -42 -2 50 -34z"/>
<path d="M8800 4976 c-280 -59 -458 -226 -492 -462 -31 -213 68 -399 267 -501
104 -53 171 -74 394 -123 273 -61 374 -102 444 -179 52 -57 71 -116 65 -204
-13 -200 -184 -320 -458 -320 -270 -1 -465 123 -524 332 l-17 61 -113 0 c-62
0 -115 -2 -118 -5 -12 -12 22 -147 55 -217 82 -177 250 -306 469 -358 226 -54
478 -28 662 68 307 161 381 573 143 806 -104 102 -219 152 -488 211 -90 20
-208 50 -262 67 -207 65 -297 168 -284 324 15 192 211 317 472 301 214 -13
360 -114 410 -282 l12 -40 121 -3 120 -3 -14 63 c-50 215 -206 375 -439 448
-90 28 -324 37 -425 16z"/>
<path d="M15790 4955 c0 -3 85 -119 188 -258 103 -138 259 -348 346 -465 l159
-213 -24 -32 c-221 -299 -709 -967 -709 -972 0 -3 62 -4 137 -3 l137 3 223
315 c305 430 363 510 371 510 4 0 140 -187 302 -415 l295 -414 138 -1 c75 0
137 2 137 5 0 5 -84 121 -421 580 -129 176 -252 344 -273 373 l-38 52 193 258
c295 394 499 670 499 676 0 3 -60 6 -134 6 l-134 0 -223 -307 c-122 -170 -245
-340 -273 -380 -28 -40 -54 -72 -59 -72 -4 -1 -49 56 -100 126 -181 248 -255
350 -357 491 l-103 142 -138 0 c-77 0 -139 -2 -139 -5z"/>
<path d="M10160 4668 c0 -46 -2 -135 -4 -198 l-4 -115 -131 -3 -132 -3 3 -97
3 -97 131 -3 132 -3 1 -425 c2 -390 3 -430 21 -488 25 -80 64 -134 126 -173
75 -48 147 -62 324 -64 l155 -1 0 99 0 98 -141 5 c-131 5 -143 7 -181 32 -78
51 -78 50 -81 510 l-3 408 203 2 203 3 3 98 3 97 -206 0 -205 0 0 200 0 200
-110 0 -110 0 0 -82z"/>
<path d="M11487 4371 c-181 -40 -352 -158 -446 -306 -135 -214 -148 -472 -34
-705 39 -79 60 -109 132 -180 69 -69 103 -94 171 -127 126 -62 192 -77 345
-77 148 0 217 14 334 69 136 65 265 193 326 326 50 111 68 210 63 349 -5 108
-10 137 -36 208 -80 216 -260 381 -477 437 -98 26 -274 28 -378 6z m320 -205
c297 -79 438 -439 288 -737 -55 -107 -166 -195 -294 -233 -120 -35 -299 -13
-409 51 -96 57 -181 172 -217 297 -26 88 -17 249 18 333 98 238 352 358 614
289z"/>
<path d="M13173 4345 c-29 -8 -72 -24 -95 -36 -53 -27 -144 -113 -169 -159
l-18 -35 -1 118 0 117 -110 0 -110 0 0 -670 0 -670 110 0 110 0 0 373 c0 204
5 401 10 437 36 226 207 349 472 338 l88 -3 0 103 0 102 -117 -1 c-68 0 -140
-6 -170 -14z"/>
<path d="M13669 4268 c21 -46 82 -175 136 -288 54 -113 157 -333 230 -490 73
-157 147 -315 164 -352 l32 -66 -42 -84 c-50 -100 -289 -599 -289 -604 0 -2
54 -4 120 -4 l120 0 13 33 c39 91 636 1363 831 1770 42 88 76 161 76 163 0 2
-54 4 -121 4 l-120 0 -34 -72 c-18 -40 -72 -158 -120 -263 -48 -104 -137 -300
-197 -435 -60 -135 -113 -249 -117 -253 -4 -4 -110 224 -236 508 l-228 515
-128 0 -128 0 38 -82z"/>
<path d="M5199 3988 c-40 -57 -102 -141 -137 -187 -45 -58 -62 -88 -56 -96 5
-7 54 -69 109 -137 55 -69 165 -207 244 -307 158 -200 324 -374 472 -493 413
-334 947 -552 1429 -582 105 -6 103 -5 -56 47 -282 91 -523 253 -750 503 -119
132 -178 206 -384 479 -95 127 -215 282 -268 345 -86 104 -506 530 -523 530
-4 0 -40 -46 -80 -102z"/>
<path d="M4704 3792 c-445 -601 -931 -1084 -1355 -1347 -126 -78 -343 -185
-457 -225 -51 -18 -91 -35 -89 -37 2 -1 50 2 106 7 370 38 786 235 1176 555
175 144 478 451 655 665 175 210 240 293 240 306 0 8 -132 133 -181 171 -13
11 -27 -3 -95 -95z"/>
</g>
</svg>
