<?xml version="1.0" standalone="no"?>
<!DOCTYPE svg PUBLIC "-//W3C//DTD SVG 20010904//EN"
 "http://www.w3.org/TR/2001/REC-SVG-20010904/DTD/svg10.dtd">
<svg version="1.0" xmlns="http://www.w3.org/2000/svg"
 width="1536.000000pt" height="1024.000000pt" viewBox="0 0 1536.000000 1024.000000"
 preserveAspectRatio="xMidYMid meet">

<g transform="translate(0.000000,1024.000000) scale(0.100000,-0.100000)"
fill="#ffffff" stroke="none">
<path d="M3690 8847 c3 -2 66 -36 140 -74 350 -179 662 -419 916 -704 174
-196 252 -297 609 -789 405 -558 570 -761 928 -1142 121 -128 459 -452 687
-658 69 -62 198 -183 288 -268 90 -85 165 -153 167 -150 2 2 42 62 88 133 99
155 254 376 349 499 60 78 67 91 55 105 -8 9 -92 108 -186 221 -872 1037
-1218 1397 -1717 1786 -635 494 -1395 846 -2189 1014 -55 12 -109 24 -120 27
-11 3 -18 3 -15 0z"/>
<path d="M11620 8681 c-907 -353 -1689 -856 -2452 -1577 -288 -273 -910 -938
-1166 -1247 l-62 -75 161 -196 c89 -108 165 -196 168 -196 3 0 47 62 96 137
96 146 326 472 427 607 554 731 1262 1437 1968 1960 295 219 648 444 915 583
77 40 136 72 130 72 -5 0 -89 -31 -185 -68z"/>
<path d="M8179 5223 c-115 -173 -206 -302 -327 -466 -66 -89 -91 -131 -85
-140 6 -6 61 -77 124 -157 63 -80 209 -266 324 -415 453 -585 630 -797 865
-1039 581 -597 1232 -1015 1996 -1282 84 -29 220 -71 304 -94 145 -39 426
-100 459 -100 9 0 -18 15 -59 34 -489 216 -949 535 -1355 941 -351 350 -560
618 -1135 1455 -471 685 -611 880 -888 1233 l-131 168 -92 -138z"/>
<path d="M7356 4931 c-198 -313 -613 -865 -910 -1211 -771 -897 -1612 -1556
-2611 -2047 -93 -46 -161 -81 -150 -79 11 3 90 25 175 50 1234 357 2311 1082
3266 2201 223 262 614 764 614 789 0 18 -306 386 -321 386 -4 0 -32 -40 -63
-89z"/>
</g>
</svg>
